<svg width="306" height="285" viewBox="0 0 306 285" fill="none" xmlns="http://www.w3.org/2000/svg">
<path fill-rule="evenodd" clip-rule="evenodd" d="M28.4985 56.7597L91.2545 0L91.0546 0.773874L209.123 31.0478L209.328 30.2595L209.897 31.2463L210.048 31.2848L210.008 31.4376L259.5 117.26L192.28 99.5759L192.261 99.6499L73.5017 68.7522L73.4998 68.7596L28.4985 56.7597ZM73.1549 79.2595L102.026 152.658L102.106 152.348L220.068 183.039L219.889 183.726L220.863 183.246L220.992 183.279L221.021 183.168L306 141.259L236.556 123.457L236.572 123.393L117.687 92.4624L117.768 92.1519L73.1549 79.2595ZM2.42941 60.7241L60.6644 76.0836L75.1052 118.548L75.256 118.668L117.74 233.413L156.022 284.809L60.4623 255.386L59.959 255.572L59.8443 255.196L58.9611 254.924L59.6803 254.657L0.541773 60.513L0 60.0834L0.446794 60.2012L0.0228148 58.8093L2.42941 60.7241Z" fill="white"/>
</svg>
