<svg width="266" height="69" viewBox="0 0 266 69" fill="none" xmlns="http://www.w3.org/2000/svg">
<path d="M103.371 32.2739C103.371 33.6773 103.197 34.9309 102.85 36.0347C102.503 37.1384 102.03 38.1161 101.431 38.9676C100.848 39.8033 100.17 40.5207 99.3971 41.1199C98.6245 41.7191 97.8124 42.2079 96.9609 42.5864C96.1252 42.9648 95.2737 43.2407 94.4065 43.4142C93.555 43.5876 92.7508 43.6744 91.9939 43.6744H78.0863V37.5248H91.9939C92.7823 37.4617 93.4919 37.304 94.1226 37.0517C94.7691 36.7837 95.321 36.4289 95.7783 35.9874C96.2356 35.5459 96.5904 35.0176 96.8427 34.4027C97.0949 33.7719 97.2211 33.0624 97.2211 32.2739V29.483C97.1423 28.7103 96.9767 28.0008 96.7244 27.3543C96.4721 26.7078 96.1252 26.1559 95.6837 25.6986C95.2579 25.2413 94.7376 24.8865 94.1226 24.6342C93.5077 24.3662 92.7981 24.2321 91.9939 24.2321H78.1337C77.3137 24.2321 76.6909 24.445 76.2651 24.8708C75.8394 25.2965 75.6265 25.9115 75.6265 26.7156V52H69.4769V26.7156C69.4769 25.1388 69.7607 23.7985 70.3284 22.6947C70.9118 21.591 71.6293 20.7001 72.4807 20.022C73.348 19.344 74.2862 18.8552 75.2954 18.5556C76.3045 18.2402 77.2349 18.0825 78.0863 18.0825H91.9939C93.3815 18.0825 94.6272 18.2639 95.731 18.6265C96.8348 18.9734 97.8045 19.4465 98.6402 20.0457C99.4917 20.6291 100.209 21.3071 100.793 22.0798C101.392 22.8524 101.881 23.6645 102.259 24.516C102.653 25.3517 102.937 26.2032 103.111 27.0704C103.284 27.9219 103.371 28.7261 103.371 29.483V32.2739ZM133.551 43.5325C133.551 44.3839 133.401 45.3064 133.102 46.2998C132.802 47.2774 132.313 48.192 131.635 49.0435C130.973 49.8792 130.098 50.5809 129.01 51.1485C127.938 51.7162 126.629 52 125.084 52H113.991C113.139 52 112.217 51.8502 111.223 51.5506C110.246 51.251 109.331 50.7701 108.48 50.1078C107.644 49.4298 106.942 48.5546 106.375 47.4824C105.807 46.3944 105.523 45.0777 105.523 43.5325C105.523 42.681 105.673 41.7585 105.972 40.7651C106.272 39.7717 106.753 38.8572 107.415 38.0215C108.093 37.17 108.968 36.4604 110.041 35.8928C111.129 35.3251 112.445 35.0413 113.991 35.0413H125.084V40.9071H113.991C113.155 40.9071 112.508 41.1672 112.051 41.6876C111.594 42.1922 111.365 42.8229 111.365 43.5798C111.365 44.3839 111.625 45.0147 112.146 45.472C112.682 45.9135 113.313 46.1342 114.038 46.1342H125.084C125.919 46.1342 126.566 45.8819 127.023 45.3773C127.48 44.8728 127.709 44.242 127.709 43.4852V34.8994C127.709 34.0952 127.457 33.4566 126.952 32.9835C126.463 32.5105 125.84 32.2739 125.084 32.2739H111.578V26.4318H125.084C125.935 26.4318 126.85 26.5816 127.827 26.8812C128.821 27.1808 129.735 27.6696 130.571 28.3477C131.422 29.0099 132.132 29.8851 132.7 30.9731C133.267 32.0453 133.551 33.3541 133.551 34.8994V43.5325ZM161.958 32.5814H151.219V52H144.999V32.5814H137.004V26.4318H144.999V18.0825H151.219V26.4318H161.958V32.5814ZM188.235 32.5814H174.399C173.563 32.5814 172.932 32.7943 172.506 33.22C172.081 33.63 171.868 34.2371 171.868 35.0413V52H165.718V35.0413C165.718 33.9848 165.852 33.0387 166.12 32.203C166.388 31.3673 166.743 30.6341 167.185 30.0033C167.642 29.3568 168.162 28.8128 168.746 28.3713C169.329 27.914 169.936 27.5435 170.567 27.2596C171.214 26.9758 171.86 26.7708 172.506 26.6447C173.169 26.5028 173.784 26.4318 174.351 26.4318H188.235V32.5814ZM220.024 43.3669C220.024 44.4234 219.89 45.3773 219.622 46.2288C219.354 47.0645 218.999 47.8057 218.558 48.4521C218.116 49.0829 217.604 49.6269 217.02 50.0842C216.437 50.5257 215.822 50.8883 215.175 51.1722C214.545 51.456 213.898 51.6689 213.236 51.8108C212.589 51.9369 211.974 52 211.391 52H200.298C199.447 52 198.516 51.8502 197.507 51.5506C196.498 51.251 195.56 50.7622 194.692 50.0842C193.841 49.3904 193.123 48.4995 192.54 47.4114C191.972 46.3077 191.689 44.9595 191.689 43.3669V35.0413C191.689 33.4644 191.972 32.132 192.54 31.044C193.123 29.9402 193.841 29.0493 194.692 28.3713C195.56 27.6775 196.498 27.1808 197.507 26.8812C198.516 26.5816 199.447 26.4318 200.298 26.4318H211.391C212.968 26.4318 214.308 26.7156 215.412 27.2833C216.516 27.851 217.407 28.5684 218.085 29.4357C218.763 30.2871 219.251 31.2175 219.551 32.2266C219.866 33.2358 220.024 34.174 220.024 35.0413V43.3669ZM213.874 35.0886C213.874 34.2371 213.662 33.6064 213.236 33.1964C212.81 32.7864 212.195 32.5814 211.391 32.5814H200.345C199.525 32.5814 198.903 32.7943 198.477 33.22C198.051 33.63 197.838 34.2371 197.838 35.0413V43.3669C197.838 44.1711 198.051 44.786 198.477 45.2118C198.903 45.6375 199.525 45.8504 200.345 45.8504H211.391C212.227 45.8504 212.85 45.6375 213.259 45.2118C213.669 44.786 213.874 44.1711 213.874 43.3669V35.0886ZM253.61 52H247.461V37.8086C247.461 37.0044 247.319 36.287 247.035 35.6562C246.767 35.0097 246.396 34.4578 245.923 34.0006C245.45 33.5433 244.891 33.1964 244.244 32.9599C243.613 32.7076 242.927 32.5814 242.186 32.5814H231.424V52H225.275V29.483C225.275 29.0572 225.354 28.663 225.511 28.3004C225.669 27.9219 225.89 27.5987 226.174 27.3306C226.457 27.0468 226.789 26.826 227.167 26.6683C227.545 26.5107 227.948 26.4318 228.373 26.4318H242.234C243.006 26.4318 243.818 26.5185 244.67 26.692C245.537 26.8654 246.389 27.1493 247.224 27.5435C248.076 27.9219 248.88 28.4107 249.637 29.0099C250.409 29.5933 251.087 30.3108 251.671 31.1623C252.27 31.998 252.743 32.9677 253.09 34.0715C253.437 35.1753 253.61 36.421 253.61 37.8086V52Z" fill="white"/>
<path fill-rule="evenodd" clip-rule="evenodd" d="M5.20272 19.3631L16.6606 9L16.6242 9.14119L38.1813 14.6686L38.2187 14.5247L38.3226 14.7049L38.35 14.7119L38.3428 14.7399L47.379 30.4091L35.1061 27.1804L35.1026 27.1939L13.4194 21.5526L13.419 21.554L5.20272 19.3631ZM13.3574 23.471L18.6286 36.8721L18.6433 36.8155L40.1807 42.4189L40.148 42.5444L40.3259 42.4567L40.3492 42.4627L40.3545 42.4426L55.87 34.7909L43.1909 31.5404L43.1939 31.5288L21.488 25.8816L21.5027 25.8249L13.3574 23.471ZM0.443561 20.0872L11.076 22.8915L13.7126 30.6446L13.7401 30.6665L21.4967 51.6166L28.4863 61.0003L11.0391 55.6283L10.9472 55.6623L10.9263 55.5935L10.765 55.5439L10.8964 55.4953L0.098917 20.0487L0 19.9702L0.0815758 19.9917L0.00416609 19.7376L0.443561 20.0872Z" fill="#D9D9D9"/>
</svg>
